<svg width="232" height="178" viewBox="0 0 232 178" fill="none" xmlns="http://www.w3.org/2000/svg">
<rect x="1" y="1" width="230" height="142" fill="white" stroke="black" stroke-width="2" stroke-dasharray="4 4"/>
<rect x="118" y="70" width="76" height="87" fill="white" stroke="black" stroke-width="2"/>
<rect x="112" y="87" width="67" height="37" fill="#53FFC1"/>
<path d="M129.96 113.276C128.611 113.276 127.438 113.054 126.441 112.609C125.445 112.164 124.64 111.559 124.026 110.792L126.027 108.584C126.61 109.228 127.246 109.703 127.936 110.01C128.642 110.317 129.355 110.47 130.075 110.47C130.903 110.47 131.532 110.286 131.961 109.918C132.391 109.55 132.605 109.021 132.605 108.331C132.605 107.764 132.437 107.334 132.099 107.043C131.777 106.752 131.225 106.545 130.443 106.422L128.764 106.146C127.323 105.901 126.28 105.372 125.636 104.559C124.992 103.731 124.67 102.727 124.67 101.546C124.67 99.9973 125.176 98.8013 126.188 97.958C127.2 97.0993 128.619 96.67 130.443 96.67C131.685 96.67 132.766 96.8617 133.686 97.245C134.606 97.6283 135.35 98.1497 135.917 98.809L133.962 100.994C133.533 100.519 133.027 100.151 132.444 99.89C131.862 99.614 131.202 99.476 130.466 99.476C128.918 99.476 128.143 100.112 128.143 101.385C128.143 101.937 128.312 102.351 128.649 102.627C129.002 102.903 129.569 103.11 130.351 103.248L132.03 103.547C133.334 103.777 134.338 104.268 135.043 105.019C135.749 105.77 136.101 106.782 136.101 108.055C136.101 108.806 135.971 109.504 135.71 110.148C135.45 110.777 135.059 111.329 134.537 111.804C134.016 112.264 133.372 112.624 132.605 112.885C131.854 113.146 130.972 113.276 129.96 113.276ZM141.566 113L137.311 96.946H141.152L143.038 105.111L143.981 109.734H144.165L145.131 105.111L147.04 96.946H150.697L146.442 113H141.566ZM160.349 110.723H160.142C160.004 111.06 159.835 111.382 159.636 111.689C159.436 111.996 159.191 112.272 158.9 112.517C158.608 112.747 158.263 112.931 157.865 113.069C157.481 113.207 157.044 113.276 156.554 113.276C155.772 113.276 155.074 113.092 154.461 112.724C153.863 112.356 153.357 111.819 152.943 111.114C152.529 110.409 152.214 109.55 152 108.538C151.8 107.526 151.701 106.384 151.701 105.111C151.701 102.382 152.199 100.296 153.196 98.855C154.192 97.3983 155.733 96.67 157.819 96.67C158.647 96.67 159.375 96.785 160.004 97.015C160.632 97.2297 161.169 97.544 161.614 97.958C162.074 98.3567 162.449 98.8397 162.741 99.407C163.032 99.9743 163.262 100.603 163.431 101.293L160.211 102.075C160.119 101.738 160.011 101.416 159.889 101.109C159.781 100.787 159.636 100.503 159.452 100.258C159.268 100.013 159.038 99.821 158.762 99.683C158.486 99.5297 158.148 99.453 157.75 99.453C156.876 99.453 156.255 99.8133 155.887 100.534C155.534 101.255 155.358 102.267 155.358 103.57V106.192C155.358 107.495 155.549 108.538 155.933 109.32C156.331 110.102 157.029 110.493 158.026 110.493C158.808 110.493 159.39 110.263 159.774 109.803C160.157 109.343 160.349 108.753 160.349 108.032V106.859H157.612V104.421H163.431V113H160.349V110.723Z" fill="black"/>
<path d="M212.553 176.197H186.118V170.395L173.326 159.137C171.377 157.422 170.879 154.562 172.101 152.272C173.696 149.281 177.605 148.374 180.316 150.408L179.872 140.204C179.76 137.632 181.722 135.442 184.29 135.271C187.024 135.089 189.342 137.257 189.342 139.998V138.158C189.342 135.309 191.651 133 194.5 133C197.349 133 199.658 135.309 199.658 138.158V138.803C199.658 135.954 201.967 133.645 204.816 133.645C207.664 133.645 209.974 135.954 209.974 138.803V141.382C209.974 138.889 211.994 136.868 214.487 136.868C216.979 136.868 219 138.889 219 141.382V160.582C219 163.783 217.051 166.661 214.08 167.85C213.157 168.219 212.553 169.112 212.553 170.105V176.197Z" fill="white"/>
<path d="M186.118 176.197H212.553V170.105C212.553 169.112 213.157 168.219 214.08 167.85V167.85C217.051 166.661 219 163.783 219 160.582V141.382C219 138.889 216.979 136.868 214.487 136.868V136.868C211.994 136.868 209.974 138.889 209.974 141.382V143.961V138.803C209.974 135.954 207.664 133.645 204.816 133.645V133.645C201.967 133.645 199.658 135.954 199.658 138.803V142.671V138.158C199.658 135.309 197.349 133 194.5 133V133C191.651 133 189.342 135.309 189.342 138.158V142.671V139.998C189.342 137.257 187.024 135.089 184.29 135.271V135.271C181.722 135.442 179.76 137.632 179.872 140.204L180.316 150.408V150.408C177.605 148.374 173.696 149.281 172.101 152.272V152.272C170.879 154.562 171.377 157.422 173.326 159.137L186.118 170.395V176.197Z" stroke="black" stroke-width="2"/>
<path d="M191.921 151.053V160.079" stroke="black" stroke-width="2"/>
<path d="M199.658 151.053V160.079" stroke="black" stroke-width="2"/>
<path d="M207.395 151.053V160.079" stroke="black" stroke-width="2"/>
</svg>
