<svg width="279" height="473" fill="none" xmlns="http://www.w3.org/2000/svg">
  <path d="M13.17 45.88c-3.88.34-6.34-.31-7.29-1.88-.9-1.5-.49-3.74 1.16-6.86 1.59-3.25 3.58-6.2 5.93-8.9 2.26-2.93 4.91-5.39 8.02-7.27 3.08-1.91 5.11-1.98 6.13-.12 1.07 1.9 1.21 5.29.33 9.98-.95 4.53-2.59 8.13-4.94 10.78-2.39 2.49-5.52 3.88-9.34 4.27zm1.49-3.78c1.69-.28 3.04-1 4.01-2.18.99-1.24 1.78-2.87 2.36-4.9.4-1.474.793-2.957 1.18-4.45.52-2.13.61-3.69.3-4.63-.26-.96-1.13-1.07-2.6-.34-1.47.74-2.67 1.83-3.6 3.22-.91 1.32-1.71 2.89-2.37 4.73-.5 1.293-1.004 2.576-1.51 3.85-.72 1.73-.96 2.99-.74 3.84.26.84 1.26 1.13 2.97.86zM37.06 43.06c-3.63.43-6.09-.49-7.31-2.73-1.16-2.17-1.26-5.5-.37-10.17.81-4.83 2.14-9.09 3.96-12.78 1.76-3.87 4.13-6.82 7.13-8.67 2.99-1.78 5.15-1.25 6.5 1.6 1.39 2.95 1.99 7.64 1.75 13.8-.3 5.92-1.41 10.49-3.31 13.75-1.95 3.13-4.74 4.81-8.35 5.2zm.75-5.23c1.6-.27 2.78-1.17 3.54-2.71.76-1.62 1.26-3.79 1.5-6.54.16-1.994.313-3.997.46-6.01.19-2.89.04-5.05-.43-6.45-.44-1.44-1.37-1.82-2.78-1.12-1.42.72-2.48 2.03-3.17 3.88-.69 1.75-1.18 3.93-1.48 6.53-.233 1.846-.473 3.68-.72 5.5-.36 2.46-.35 4.29.03 5.53.42 1.22 1.44 1.68 3.05 1.39zM51.51 41.33c.553-12 .9-24.803 1.04-38.41A77.424 77.424 0 0161.41.17c1.14-.16 2.16.1 3.09.79.93.67 1.73 1.68 2.41 3.02.69 1.37 1.25 2.98 1.64 4.81.41 1.84.65 3.85.73 6.01.08 2.14-.02 4.01-.31 5.65-.28 1.62-.75 2.96-1.39 4.04-.64 1.06-1.43 1.88-2.39 2.43-.96.53-2.05.79-3.29.78-1.434.027-2.867.08-4.3.16-.1 4.56-.22 9.023-.36 13.39-1.907 0-3.817.027-5.73.08zm6.16-20.3c.953-.1 1.906-.187 2.86-.26 1.25-.06 2.11-.48 2.57-1.29.48-.81.7-2.16.66-4.04l-.04-1.87c-.05-1.95-.33-3.35-.83-4.19-.48-.83-1.32-1.18-2.53-1.02-.914.147-1.827.313-2.74.5.04 4.133.056 8.19.05 12.17zM82.46 45.57c-2.26-.61-4.23-1.6-5.91-3.02a16.145 16.145 0 01-4.07-5.06 718.09 718.09 0 003.12-4.67c.99 1.79 2.06 3.2 3.21 4.23 1.19 1.04 2.38 1.74 3.56 2.09 1.37.43 2.38.33 3.05-.29.66-.61.94-1.73.84-3.37-.08-1.35-.41-2.49-1.01-3.42-.56-.9-1.48-1.75-2.76-2.51l-2.74-1.61c-2.34-1.3-4.05-3.09-5.17-5.46-1.1-2.41-1.71-5.22-1.86-8.47-.21-4.34.38-7.6 1.79-9.59 1.4-1.97 3.49-2.25 6.32-.78 1.93 1.11 3.67 2.67 5.19 4.62 1.54 1.95 2.84 4.07 3.88 6.35-.886 1.2-1.776 2.44-2.67 3.72-.78-1.6-1.65-2.99-2.62-4.16-.98-1.23-2.04-2.14-3.2-2.71-2.42-1.1-3.51.19-3.31 3.7.09 1.5.41 2.7.98 3.63.6.92 1.53 1.82 2.8 2.65.9.62 1.81 1.257 2.73 1.91 2.13 1.53 3.83 3.49 5.11 5.87 1.28 2.36 2.03 5.01 2.25 7.98.12 1.73.02 3.24-.31 4.53-.35 1.26-.92 2.25-1.72 3-.82.72-1.85 1.16-3.1 1.31-1.23.18-2.7.02-4.38-.47zM104.04 41.83c-1.153-4.58-2.313-9.23-3.48-13.95-.366-3.5-.74-7.02-1.12-10.56 2 1.593 4.004 3.2 6.01 4.82.414 3.293.82 6.583 1.22 9.87-.24 3.587-.5 7.2-.78 10.84-.62-.34-1.236-.68-1.85-1.02zm2.15 12.69c-1.42-.63-2.45-1.43-3.08-2.41-.65-.99-1.01-2.01-1.1-3.05l-.14-1.56c-.09-1.01.11-1.76.61-2.23.51-.47 1.46-.35 2.82.35 1.38.71 2.38 1.58 3.04 2.6.67 1.02 1.06 2.01 1.16 2.96l.16 1.49c.11.98-.08 1.7-.59 2.14-.51.43-1.47.34-2.88-.29zM152.97 59.21c1.894 5.127 3.647 10.627 5.26 16.5-2.14-.64-4.276-1.303-6.41-1.99-1.573-6.167-3.266-12.023-5.08-17.57a243.168 243.168 0 01-8.11-4.75c-.38-1.28-.76-2.55-1.14-3.81 7.36 4.713 14.93 8.793 22.71 12.24.48.833.95 1.69 1.41 2.57a147.447 147.447 0 01-8.64-3.19zM183.14 72.34c-2.72-.24-5.42-.526-8.1-.86.847 2.68 1.66 5.46 2.44 8.34-2.26-.346-4.513-.72-6.76-1.12-2.02-6.62-4.276-12.556-6.77-17.81 2.28.48 4.577.893 6.89 1.24a85.007 85.007 0 013.03 6.21c2.7.32 5.424.587 8.17.8a117.664 117.664 0 00-2.85-6.5c2.427-.013 4.874-.07 7.34-.17 2.14 5.754 4.104 11.993 5.89 18.72-2.326-.126-4.643-.28-6.95-.46a228.693 228.693 0 00-2.33-8.39zM198.71 81.38a400.952 400.952 0 00-.75-3.41c2.36-.007 4.72-.034 7.08-.08a323.359 323.359 0 00-3.42-13.75c-2.474.227-4.94.433-7.4.62-.334-.934-.667-1.857-1-2.77a751.841 751.841 0 0022.61-2.9l.74 3.27c-2.5.333-5 .653-7.5.96a409.021 409.021 0 013.1 14.29c2.386-.133 4.773-.277 7.16-.43.186 1.213.37 2.436.55 3.67-7.08.306-14.137.483-21.17.53zM237.16 79.99c-2.78.23-5.23.1-7.36-.41-2.14-.5-3.92-1.27-5.35-2.28l3.75-3.57c1.34.82 2.75 1.4 4.25 1.72 1.52.31 3.03.4 4.53.26 1.71-.17 3-.58 3.84-1.23.85-.65 1.22-1.51 1.12-2.56-.08-.86-.5-1.47-1.25-1.84-.71-.35-1.91-.52-3.59-.51h-3.59c-3.11 0-5.42-.5-6.97-1.49-1.56-.99-2.48-2.29-2.76-3.9-.38-2.09.41-3.86 2.42-5.34 2.02-1.52 5.03-2.62 9.05-3.31 2.74-.47 5.16-.6 7.25-.39 2.08.22 3.79.72 5.14 1.5-1.307 1.3-2.607 2.6-3.9 3.9-1.01-.57-2.15-.94-3.47-1.13-1.31-.2-2.78-.18-4.38.07-3.37.52-4.93 1.66-4.65 3.45.11.78.57 1.31 1.35 1.61.81.28 2.07.42 3.77.4 1.213-.02 2.43-.034 3.65-.04 2.82-.03 5.02.42 6.61 1.37 1.59.97 2.45 2.44 2.59 4.42.08 1.16-.11 2.29-.58 3.35-.48 1.04-1.22 1.98-2.24 2.83-1.03.82-2.31 1.51-3.85 2.05-1.51.54-3.31.9-5.38 1.07zM2.11 81.04c.394-1.093.79-2.18 1.19-3.26 2.574.673 5.137 1.34 7.69 2 1.587-4.953 3.22-9.91 4.9-14.87-2.326-.3-4.66-.61-7-.93.454-1.073.907-2.157 1.36-3.25 6.794.64 13.504 1.233 20.13 1.78a1367.44 1367.44 0 01-.88 4.03c-2.24-.253-4.486-.513-6.74-.78a1196.731 1196.731 0 00-4.23 15.89c2.467.587 4.927 1.167 7.38 1.74-.253 1.3-.503 2.603-.75 3.91-7.566-1.98-15.25-4.067-23.05-6.26zM40.91 72.78c-.167-.02-.33-.043-.49-.07-.84 5.947-1.643 11.864-2.41 17.75-2.053-.493-4.113-.993-6.18-1.5a2238.53 2238.53 0 014.43-25.97c2.573.22 5.133.444 7.68.67a838.411 838.411 0 004.88 19.8l.5.1 1.79-19.17c1.78.207 3.56.42 5.34.64-.693 9.94-1.357 19.697-1.99 29.27-2.78-.64-5.573-1.286-8.38-1.94a779.45 779.45 0 01-5.17-19.58zM74.38 73.65c-.067 8.54-.127 16.96-.18 25.26l-6.72-1.58c.2-8.187.413-16.494.64-24.92a720.07 720.07 0 00-8.45-1.47c.093-1.8.19-3.61.29-5.43a474.786 474.786 0 0122.68 4.32l.1 5.7a625.24 625.24 0 00-8.36-1.88zM87.67 102.18c-.253-10.253-.52-20.68-.8-31.28a661.979 661.979 0 0118.24 5.33l.38 5.53a972.332 972.332 0 00-12.25-3.53c.1 2.42.197 4.83.29 7.23 4 1.08 8.003 2.177 12.01 3.29.12 1.813.237 3.623.35 5.43-4.053-1.087-8.103-2.16-12.15-3.22l.28 7.46a3998.07 3998.07 0 0112.75 3.28c.107 1.793.217 3.583.33 5.37a4861.88 4861.88 0 00-19.43-4.89zM119.98 110.35c-2.14-.54-4.274-1.08-6.4-1.62-.734-10.12-1.507-20.29-2.32-30.51a7655.64 7655.64 0 0111.15 3.7c1.41.47 2.7 1.11 3.86 1.93 1.15.77 2.16 1.69 3.01 2.72.88 1.06 1.57 2.2 2.1 3.45.52 1.25.86 2.58 1.02 3.98.23 2.05-.02 3.69-.78 4.9-.75 1.24-1.94 1.87-3.56 1.9 2.34 4.44 4.686 8.867 7.04 13.28-2.367-.566-4.73-1.14-7.09-1.72A2253.315 2253.315 0 01122 99.99c-.987-.266-1.967-.533-2.94-.8l.92 11.16zm2.29-15.12c1.49.42 2.5.43 3.01.03.54-.4.74-1.25.61-2.54-.047-.42-.09-.84-.13-1.26-.14-1.3-.53-2.32-1.18-3.07-.61-.73-1.66-1.33-3.14-1.79l-3.58-1.12.78 8.72c1.213.347 2.423.69 3.63 1.03zM139.67 115.16a2021.944 2021.944 0 00-3.33-28.72 661.953 661.953 0 0019.68 5.54c.247 1.54.49 3.09.73 4.65a690.658 690.658 0 01-13.41-3.41c.287 2.12.567 4.25.84 6.39 4 .993 8.013 1.953 12.04 2.88.22 1.613.437 3.233.65 4.86a833.436 833.436 0 01-12.08-2.75c.467 3.98.927 7.99 1.38 12.03-2.167-.487-4.333-.977-6.5-1.47zM181.27 122.83c-.927-2.327-1.857-4.643-2.79-6.95-2.787-.4-5.577-.82-8.37-1.26-.34 2.133-.677 4.28-1.01 6.44-2.22-.373-4.433-.753-6.64-1.14 1.54-8.787 3.02-17.3 4.44-25.54a431.15 431.15 0 009.31 1.62 1008.93 1008.93 0 0112.08 27.65 620.9 620.9 0 01-7.02-.82zm-8.87-22.28l-.35-.06-1.52 9.54c2.107.34 4.21.667 6.31.98-1.467-3.513-2.947-7-4.44-10.46zM202.43 125.3c-4.1-.28-7.29-1.78-9.59-4.44-2.28-2.69-3.71-6.26-4.29-10.68-.61-4.31-.1-7.49 1.55-9.58 1.68-2.1 4.62-2.98 8.83-2.73 1.62.08 3.08.32 4.37.72 1.32.37 2.46.89 3.45 1.54.99.65 1.83 1.44 2.51 2.35.72.91 1.32 1.94 1.78 3.08-2.047.38-4.09.743-6.13 1.09-.25-.63-.53-1.21-.84-1.73-.31-.53-.68-.99-1.12-1.37-.4-.39-.91-.69-1.5-.9-.58-.25-1.25-.4-2.03-.44-1.82-.11-3.04.4-3.65 1.51-.58 1.1-.72 2.69-.44 4.79.206 1.533.41 3.077.61 4.63.27 2.17.85 3.9 1.74 5.21.92 1.29 2.27 1.99 4.06 2.11 1.53.09 2.58-.27 3.17-1.07.6-.82 1-1.86 1.17-3.14 2.113.52 4.226 1.033 6.34 1.54-.19 1.19-.53 2.27-1.01 3.23-.45.96-1.08 1.79-1.88 2.48-.81.65-1.8 1.14-2.98 1.47-1.17.31-2.54.42-4.12.33zM218.34 125.4a2641.378 2641.378 0 00-2.86-26.73c6.767-.114 13.534-.3 20.3-.56l.36 4.61c-4.453.167-8.906.3-13.36.4l.6 6.03c4.26-.08 8.517-.187 12.77-.32.12 1.58.237 3.163.35 4.75-4.22.127-8.443.227-12.67.3.207 2.187.414 4.393.62 6.62 4.327-.067 8.654-.163 12.98-.29l.36 4.93c-6.466.167-12.95.253-19.45.26zM45.99 142.23c-.093-1.633-.18-3.257-.26-4.87 2.547.8 5.083 1.59 7.61 2.37a751.244 751.244 0 01-.44-20.29c-2.473-.713-4.953-1.437-7.44-2.17.033-1.507.073-3.013.12-4.52 7.34 2.06 14.59 4.057 21.75 5.99l.06 4.73-7.19-1.97c.12 6.747.323 13.57.61 20.47 2.453.713 4.9 1.423 7.34 2.13.1 1.627.203 3.267.31 4.92-7.4-2.173-14.89-4.437-22.47-6.79zM85.93 154.33c-2.78-.74-5.24-1.82-7.37-3.25-2.13-1.42-3.9-3.06-5.27-4.9 1.313-1.027 2.623-2.053 3.93-3.08 1.28 1.56 2.64 2.83 4.1 3.8 1.49.97 2.98 1.67 4.45 2.05 1.7.45 2.96.42 3.78-.06.83-.48 1.19-1.4 1.1-2.73-.07-1.09-.45-2-1.18-2.74-.68-.72-1.83-1.41-3.42-2.06-1.16-.473-2.313-.95-3.46-1.43-2.99-1.24-5.17-2.83-6.58-4.73-1.39-1.92-2.11-3.98-2.19-6.21-.09-2.9.88-4.87 2.89-5.91 2.01-1.08 4.82-1.14 8.47-.21 2.46.62 4.61 1.51 6.46 2.7 1.86 1.18 3.38 2.53 4.57 4.07l-3.66 3.18c-.91-1.12-1.94-2.07-3.13-2.86-1.19-.82-2.52-1.42-4-1.8-3.1-.8-4.62 0-4.52 2.4.04 1.05.41 1.92 1.12 2.62.74.7 1.91 1.4 3.51 2.08 1.133.473 2.273.953 3.42 1.44 2.64 1.11 4.71 2.56 6.22 4.35 1.49 1.8 2.33 3.92 2.5 6.37.1 1.45-.06 2.74-.49 3.85a5.799 5.799 0 01-2.13 2.62c-1 .62-2.25.99-3.77 1.09-1.49.11-3.28-.11-5.35-.65zM134.87 145.29c-.166-.033-.33-.066-.49-.1.64 6.827 1.294 13.694 1.96 20.6l-5.78-1.24c-.953-10.366-1.88-20.65-2.78-30.85 2.647.594 5.294 1.184 7.94 1.77 2.987 7.24 5.997 14.514 9.03 21.82.16.034.32.064.48.09-.68-6.82-1.353-13.593-2.02-20.32 1.88.387 3.76.767 5.64 1.14 1.04 10.14 2.097 20.394 3.17 30.76-2.68-.526-5.363-1.056-8.05-1.59a7970.257 7970.257 0 01-9.1-22.08zM168.13 172.4c-4.15-.71-7.37-2.68-9.66-5.88-2.27-3.2-3.66-7.32-4.19-12.37-.52-5 .05-8.68 1.7-11.07 1.67-2.37 4.55-3.18 8.65-2.47 4.09.67 7.26 2.49 9.49 5.51 2.28 3.03 3.7 7.03 4.27 12.04.57 5.07.04 8.89-1.62 11.44-1.61 2.56-4.5 3.5-8.64 2.8zm-.6-5.44c1.88.31 3.11-.17 3.66-1.46.57-1.31.73-3.23.45-5.75l-.6-5.33c-.27-2.45-.85-4.41-1.74-5.89-.85-1.5-2.23-2.41-4.1-2.72-1.87-.32-3.1.16-3.68 1.42-.57 1.24-.71 3.08-.45 5.53l.58 5.37c.27 2.49.83 4.5 1.7 6.05.89 1.53 2.29 2.46 4.18 2.78zM194.86 150.39c.98 8.473 1.983 17.073 3.01 25.8-2.2-.267-4.4-.54-6.6-.82-1.013-8.68-2.003-17.24-2.97-25.68-2.94-.354-5.877-.724-8.81-1.11-.207-1.774-.41-3.54-.61-5.3 8.053.973 16.1 1.816 24.14 2.53.2 1.773.403 3.553.61 5.34-2.92-.234-5.843-.487-8.77-.76zM19.49 189.89c-4.74-1.53-8.66-4.4-11.76-8.64-3.11-4.26-5.39-9.53-6.79-15.73-1.34-6.11-1.11-10.34.7-12.68 1.91-2.26 5.49-2.35 10.67-.38 5.12 1.91 9.07 4.81 11.9 8.76 2.84 3.94 4.7 8.74 5.65 14.45 1.01 5.79.7 9.98-.95 12.54-1.57 2.61-4.7 3.18-9.42 1.68zm-1.37-6.47c2.2.73 3.53.39 4.03-.98.53-1.39.5-3.56-.05-6.5-.387-2.073-.767-4.136-1.14-6.19-.5-2.85-1.32-5.21-2.48-7.1-1.14-1.92-2.85-3.31-5.18-4.16-2.32-.87-3.81-.65-4.42.64-.56 1.29-.56 3.39.02 6.32.433 2.134.873 4.277 1.32 6.43.64 2.99 1.56 5.49 2.76 7.49 1.23 1.97 2.94 3.32 5.14 4.05zM38.21 195.14c-2.047-11.82-3.91-23.43-5.59-34.83 4.7 1.58 9.357 3.12 13.97 4.62 1.74.55 3.3 1.28 4.71 2.21 1.4.89 2.6 1.92 3.6 3.11 1.05 1.2 1.88 2.52 2.49 3.94.63 1.45 1.04 2.98 1.24 4.6.21 1.63.17 3.03-.12 4.21-.28 1.19-.82 2.12-1.61 2.78-.76.68-1.75 1.09-2.99 1.22-1.25.1-2.71-.1-4.41-.61a844.18 844.18 0 01-5.94-1.81c.687 4.24 1.393 8.5 2.12 12.78-2.48-.733-4.97-1.473-7.47-2.22zm4.42-16.55c1.367.427 2.73.85 4.09 1.27 1.78.55 2.95.6 3.53.16.6-.44.81-1.4.61-2.88-.06-.487-.123-.967-.19-1.44-.19-1.48-.69-2.65-1.47-3.51-.76-.84-2.03-1.55-3.83-2.12-1.38-.44-2.76-.883-4.14-1.33.454 3.267.92 6.55 1.4 9.85zM78.3 179.84a2119.666 2119.666 0 003.35 27.38c-2.367-.606-4.734-1.22-7.1-1.84a2074.344 2074.344 0 01-3.5-27.54c-3.267-.926-6.55-1.87-9.85-2.83-.22-1.933-.437-3.863-.65-5.79a1692.416 1692.416 0 0026.75 7.47c.193 1.894.39 3.794.59 5.7-3.187-.833-6.383-1.683-9.59-2.55zM95.69 210.71c-.22-1.773-.436-3.537-.65-5.29 2.334.567 4.66 1.13 6.98 1.69-.866-7.48-1.7-14.917-2.5-22.31-2.333-.58-4.68-1.17-7.04-1.77-.173-1.707-.35-3.417-.53-5.13a2505.65 2505.65 0 0020.98 5.15l.52 5.11c-2.306-.547-4.62-1.097-6.94-1.65.794 7.373 1.614 14.783 2.46 22.23 2.314.54 4.617 1.073 6.91 1.6.2 1.733.404 3.473.61 5.22-6.906-1.58-13.84-3.197-20.8-4.85zM137.97 206.1c-.207-2.994-.413-5.977-.62-8.95a6.307 6.307 0 00-.41-.09c-1.367 5.12-2.733 10.25-4.1 15.39-2.587-6-5.173-11.994-7.76-17.98a6.307 6.307 0 00-.41-.09c.447 3.033.893 6.073 1.34 9.12.54 4.833 1.083 9.68 1.63 14.54-1.973-.434-3.953-.87-5.94-1.31a4549.48 4549.48 0 01-3.54-32.47c2.7.62 5.403 1.233 8.11 1.84 1.68 3.893 3.367 7.79 5.06 11.69l.36.08c.92-3.327 1.843-6.654 2.77-9.98 2.493.533 4.987 1.063 7.48 1.59a10307.65 10307.65 0 003.55 32.37c-1.967-.414-3.937-.827-5.91-1.24-.54-4.847-1.077-9.684-1.61-14.51zM150.64 222.92c-.193-1.734-.386-3.46-.58-5.18 2.274.466 4.54.93 6.8 1.39-.826-7.4-1.646-14.777-2.46-22.13-2.253-.447-4.513-.9-6.78-1.36-.18-1.7-.363-3.404-.55-5.11a2209.164 2209.164 0 0020.25 3.93l.58 5.14c-2.246-.42-4.496-.847-6.75-1.28.827 7.373 1.66 14.77 2.5 22.19 2.267.453 4.53.903 6.79 1.35l.6 5.22a6371.205 6371.205 0 01-20.4-4.16zM199.43 232.73c-7.62-1.507-15.23-3.017-22.83-4.53l-.72-6.18a2092.658 2092.658 0 0012.16-18.28c-4.7-.807-9.407-1.633-14.12-2.48l-.66-5.72c7.2 1.24 14.39 2.437 21.57 3.59.26 2.073.516 4.15.77 6.23-4 6.22-8.024 12.393-12.07 18.52 5.053.973 10.106 1.94 15.16 2.9.246 1.987.493 3.97.74 5.95zM205.28 233.89c-1.434-11.34-2.857-22.62-4.27-33.84 6.593.926 13.176 1.8 19.75 2.62l.84 6.13c-4.387-.594-8.774-1.204-13.16-1.83.333 2.6.67 5.203 1.01 7.81 4.266.68 8.533 1.343 12.8 1.99l.86 6.21c-4.294-.707-8.584-1.424-12.87-2.15.36 2.766.72 5.543 1.08 8.33 4.48.826 8.956 1.65 13.43 2.47.293 2.086.583 4.173.87 6.26-6.787-1.334-13.567-2.667-20.34-4zM226.83 203.36c3.287.347 6.573.677 9.86.99 4.11.36 7.39 2.2 9.85 5.56 2.5 3.43 4.25 8.24 5.24 14.41 1.01 6.22.75 10.82-.78 13.76-1.54 2.9-4.47 3.91-8.79 3.07l-10.29-2.02c-1.727-12.007-3.423-23.93-5.09-35.77zm13.97 31.41c2.03.36 3.4-.14 4.1-1.51.7-1.39.81-3.57.35-6.51-.353-2.28-.707-4.553-1.06-6.82-.45-2.89-1.24-5.14-2.39-6.77-1.13-1.61-2.68-2.51-4.65-2.72-.98-.107-1.963-.217-2.95-.33 1.173 7.993 2.36 16.033 3.56 24.12 1.02.18 2.033.36 3.04.54zM24.58 253.09a8119.662 8119.662 0 00-9.57-39.19 3408.21 3408.21 0 0022 6.01l1.36 6.58c-4.867-1.26-9.74-2.53-14.62-3.81.686 2.953 1.376 5.907 2.07 8.86 4.273 1.047 8.543 2.093 12.81 3.14.466 2.2.93 4.4 1.39 6.6-4.214-.98-8.42-1.96-12.62-2.94 1.226 5.36 2.446 10.717 3.66 16.07l-6.48-1.32zM60.44 261.1c-4.1-.85-7.44-3.14-10.05-6.89-2.59-3.76-4.5-8.68-5.71-14.74-1.22-6.04-1.14-10.49.24-13.32 1.45-2.78 4.38-3.58 8.77-2.45 4.37 1.12 7.85 3.54 10.44 7.26 2.6 3.72 4.37 8.47 5.33 14.25.96 5.81.7 10.11-.75 12.92-1.4 2.83-4.16 3.82-8.27 2.97zm-1.11-6.27c1.89.4 3.06-.12 3.49-1.58.45-1.49.43-3.69-.08-6.61-.367-2.073-.73-4.143-1.09-6.21-.5-2.88-1.27-5.21-2.32-7-1.03-1.83-2.54-3-4.51-3.49-1.99-.49-3.2 0-3.66 1.48-.44 1.45-.38 3.64.18 6.58.4 2.12.803 4.243 1.21 6.37.55 2.94 1.34 5.32 2.37 7.15 1.04 1.8 2.5 2.9 4.41 3.31zM83.48 265.26l-6.55-1.34a45358.635 45358.635 0 00-5.62-35.23c4.16 1 8.32 1.993 12.48 2.98 1.56.36 3 .96 4.3 1.77 1.29.77 2.42 1.72 3.37 2.85a14.99 14.99 0 012.4 3.86c.61 1.44 1.03 2.99 1.26 4.65.34 2.43.15 4.4-.57 5.92-.72 1.54-1.92 2.4-3.61 2.59 2.7 5.02 5.386 10.03 8.06 15.03-2.427-.473-4.854-.95-7.28-1.43-2.36-4.653-4.73-9.317-7.11-13.99a408.73 408.73 0 01-3.11-.67c.66 4.327 1.32 8.663 1.98 13.01zm1.02-17.95c1.61.35 2.66.26 3.17-.27.54-.52.7-1.54.48-3.05l-.22-1.48c-.22-1.52-.69-2.68-1.43-3.49-.71-.79-1.87-1.38-3.49-1.75-1.307-.3-2.62-.603-3.94-.91l1.54 10.09c1.306.287 2.603.573 3.89.86zM140.42 249.68c1.033 9.027 2.056 18.053 3.07 27.08-2.234-.42-4.464-.837-6.69-1.25-1.047-9.08-2.1-18.153-3.16-27.22l-9.09-1.88-.7-5.85c8.333 1.747 16.67 3.48 25.01 5.2.213 1.927.43 3.853.65 5.78l-9.09-1.86zM167.07 281.84c-4.2-.83-7.45-2.9-9.78-6.24-2.29-3.33-3.73-7.67-4.32-13.01-.59-5.33-.06-9.28 1.6-11.85 1.7-2.55 4.66-3.38 8.89-2.5 4.24.88 7.53 3.01 9.85 6.4 2.36 3.4 3.83 7.76 4.4 13.07.56 5.3-.03 9.18-1.76 11.67-1.7 2.5-4.66 3.31-8.88 2.46zm-.57-5.59c1.92.39 3.18-.06 3.75-1.36.6-1.33.76-3.3.48-5.93l-.6-5.62c-.29-2.62-.88-4.74-1.8-6.36-.89-1.65-2.31-2.68-4.24-3.08-1.94-.41-3.19.07-3.78 1.42-.57 1.31-.71 3.27-.42 5.9.207 1.887.414 3.78.62 5.68.28 2.62.85 4.73 1.74 6.36.91 1.61 2.31 2.6 4.25 2.99zM186.5 253.65c.774 6.94 1.527 13.847 2.26 20.72.11 1.02.23 1.96.39 2.84.17.85.43 1.61.76 2.25.37.66.86 1.22 1.47 1.68.62.45 1.43.78 2.44 1.02 1.02.24 1.81.27 2.36.1.55-.19.94-.55 1.15-1.07.25-.51.37-1.18.34-2 0-.84-.05-1.77-.16-2.8a4575 4575 0 00-2.3-20.82c2.294.514 4.594 1.03 6.9 1.55.774 6.714 1.527 13.387 2.26 20.02.24 2.24.29 4.17.15 5.77-.11 1.59-.52 2.84-1.26 3.73-.72.89-1.8 1.43-3.23 1.62-1.43.19-3.32 0-5.66-.55-2.32-.54-4.26-1.25-5.77-2.13-1.52-.88-2.75-1.96-3.68-3.23-.93-1.29-1.63-2.79-2.11-4.51-.45-1.73-.78-3.7-1.01-5.93-.7-6.553-1.416-13.13-2.15-19.73 2.28.487 4.564.977 6.85 1.47zM223.21 295.24c-4.44-1.27-7.86-3.62-10.29-7.1-2.4-3.49-3.88-7.92-4.47-13.33-.61-5.44-.06-9.43 1.66-11.94 1.74-2.56 4.77-3.34 9.11-2.29 1.67.4 3.19 1.01 4.54 1.82 1.36.78 2.57 1.73 3.62 2.84a17.6 17.6 0 012.71 3.75c.79 1.4 1.47 2.91 2.01 4.53-2.14-.033-4.28-.07-6.42-.11-.29-.87-.6-1.68-.93-2.43-.34-.76-.74-1.44-1.22-2.03a5.98 5.98 0 00-1.59-1.5c-.6-.45-1.31-.77-2.13-.98-1.89-.47-3.15-.02-3.78 1.33-.6 1.32-.73 3.32-.42 6.02l.66 5.81c.29 2.67.9 4.84 1.85 6.56.98 1.7 2.44 2.82 4.36 3.36 1.66.48 2.8.33 3.42-.47.65-.8 1.07-1.93 1.23-3.43 2.294 1.193 4.594 2.4 6.9 3.62-.17 1.38-.53 2.56-1.04 3.54-.48.99-1.16 1.76-2.03 2.32-.88.51-1.96.79-3.26.82-1.27.04-2.77-.2-4.49-.71zM254.05 290.73c-2.873-.94-5.74-1.87-8.6-2.79.62 4.867 1.214 9.687 1.78 14.46-2.486-.853-4.963-1.693-7.43-2.52a2558.242 2558.242 0 00-4.35-34.67c2.374.62 4.754 1.243 7.14 1.87.694 4.893 1.37 9.763 2.03 14.61 2.84.867 5.684 1.743 8.53 2.63-.72-4.973-1.453-9.97-2.2-14.99 2.4.653 4.8 1.313 7.2 1.98a2854.323 2854.323 0 015.46 37.13c-2.546-.973-5.086-1.933-7.62-2.88-.62-4.9-1.266-9.843-1.94-14.83zM42.3 282.63c3.107.533 6.223 1.077 9.35 1.63 3.94.71 7.14 2.79 9.55 6.22 2.4 3.42 4.03 8.01 4.89 13.75.82 5.74.49 9.96-.97 12.68-1.47 2.7-4.14 3.7-7.99 3-3.06-.553-6.104-1.097-9.13-1.63a1360.68 1360.68 0 00-5.7-35.65zm13.61 31.25c1.83.32 3.06-.17 3.72-1.46.64-1.31.77-3.35.36-6.13-.32-2.16-.644-4.317-.97-6.47-.43-2.77-1.21-4.96-2.3-6.59-1.1-1.63-2.58-2.6-4.44-2.92l-2.78-.48a1542.697 1542.697 0 013.67 23.57l2.74.48zM73.27 322.82a2492.217 2492.217 0 00-5.11-35.56c6.367 1.166 12.75 2.326 19.15 3.48l.86 6.19c-4.227-.74-8.447-1.484-12.66-2.23.4 2.706.793 5.413 1.18 8.12 4.047.706 8.1 1.403 12.16 2.09.274 2.066.55 4.136.83 6.21-4.04-.674-8.077-1.357-12.11-2.05.387 2.86.774 5.723 1.16 8.59 4.147.7 8.307 1.39 12.48 2.07l.78 6.24c-6.253-1.02-12.493-2.07-18.72-3.15zM103.32 327.67c-4.087-12.1-8.23-24.197-12.43-36.29 2.4.42 4.806.84 7.22 1.26 1.96 6.093 3.903 12.177 5.83 18.25 1 3.427 1.993 6.857 2.98 10.29.113.013.226.03.34.05.193-3.26.386-6.507.58-9.74.46-5.667.923-11.317 1.39-16.95 2.306.38 4.613.763 6.92 1.15a9916.214 9916.214 0 00-3.84 33.21c-2.994-.4-5.99-.81-8.99-1.23zM123.74 330.31c-.207-1.82-.41-3.637-.61-5.45 2.133.266 4.266.53 6.4.79-.847-7.674-1.704-15.33-2.57-22.97-2.174-.334-4.344-.67-6.51-1.01-.214-1.794-.43-3.59-.65-5.39 6.546 1.06 13.106 2.12 19.68 3.18.193 1.746.383 3.49.57 5.23l-6.55-1c.833 7.56 1.653 15.133 2.46 22.72l6.44.74c.173 1.746.35 3.496.53 5.25-6.407-.68-12.804-1.377-19.19-2.09zM159.71 334.67c-4.01-.42-7.12-2.17-9.34-5.27-2.2-3.17-3.59-7.44-4.13-12.81-.54-5.35.01-9.35 1.67-11.97 1.68-2.63 4.59-3.59 8.72-2.9 1.58.27 3.01.73 4.26 1.39 1.29.64 2.41 1.43 3.37 2.37.96.95 1.78 2.02 2.44 3.23.69 1.21 1.27 2.54 1.71 3.96-2.013.18-4.026.363-6.04.55-.24-.78-.52-1.51-.8-2.18-.3-.68-.66-1.28-1.08-1.79-.4-.52-.89-.94-1.47-1.27-.56-.36-1.22-.61-1.98-.73-1.79-.29-2.99.26-3.61 1.62-.59 1.33-.76 3.29-.5 5.88l.54 5.61c.25 2.59.8 4.65 1.66 6.21.89 1.52 2.21 2.39 3.96 2.59 1.49.18 2.54-.16 3.12-1.04.61-.89 1.01-2.05 1.19-3.51l6.24 2.34c-.2 1.33-.56 2.49-1.05 3.51-.46 1.02-1.09 1.89-1.89 2.59-.8.66-1.78 1.14-2.96 1.43-1.14.29-2.49.35-4.03.19zM175.37 335.92a3735.592 3735.592 0 00-2.53-30.84c6.673 1.273 13.377 2.61 20.11 4.01l.42 5.37a1182.2 1182.2 0 00-13.35-2.65c.193 2.353.383 4.7.57 7.04 4.267.767 8.54 1.567 12.82 2.4.12 1.747.237 3.49.35 5.23-4.26-.787-8.51-1.543-12.75-2.27.18 2.433.357 4.863.53 7.29 4.353.673 8.72 1.383 13.1 2.13.1 1.693.193 3.383.28 5.07-6.547-.993-13.063-1.92-19.55-2.78zM211.2 342.23c-2.66-.56-4.97-1.39-6.95-2.55-1.98-1.14-3.61-2.51-4.87-4.09 1.24-1.053 2.483-2.1 3.73-3.14 1.2 1.38 2.49 2.48 3.88 3.31 1.42.83 2.84 1.4 4.27 1.72 1.64.37 2.89.35 3.73-.07.84-.43 1.24-1.22 1.19-2.41-.03-.98-.41-1.82-1.11-2.5-.66-.67-1.79-1.31-3.38-1.91a778.298 778.298 0 00-3.38-1.29c-2.9-1.09-5.01-2.5-6.39-4.26-1.36-1.79-2.11-3.77-2.26-5.96-.2-2.88.64-4.89 2.55-6 1.91-1.13 4.71-1.22 8.4-.28 2.53.67 4.76 1.62 6.7 2.86 1.94 1.25 3.54 2.65 4.8 4.22-1.267.947-2.53 1.897-3.79 2.85-.93-1.11-2-2.06-3.22-2.86-1.22-.83-2.58-1.45-4.08-1.83-3.12-.8-4.61 0-4.46 2.35.07 1.01.46 1.85 1.16 2.52.74.67 1.9 1.33 3.5 1.96 1.133.467 2.277.937 3.43 1.41 2.66 1.11 4.75 2.53 6.25 4.25 1.5 1.72 2.29 3.67 2.36 5.86.04 1.27-.2 2.39-.7 3.33-.51.91-1.28 1.62-2.31 2.15-1.04.51-2.31.79-3.83.87-1.48.09-3.23-.08-5.22-.51zM239.66 349.79c-1.8-.57-3.08-1.26-3.87-2.08-.76-.84-1.14-1.69-1.14-2.52 0-.433-.004-.867-.01-1.3 0-.85.39-1.45 1.15-1.81.79-.37 2.09-.26 3.91.35 1.82.62 3.13 1.4 3.91 2.29.82.88 1.22 1.74 1.21 2.56l-.02 1.27c-.02.81-.43 1.37-1.26 1.68-.78.3-2.08.15-3.88-.44zM39.62 346.39c.693 9.06 1.36 18.18 2 27.36a3430.16 3430.16 0 01-6.42-2.3 4060.345 4060.345 0 00-1.68-26.56l-8.13-1.98a1611.9 1611.9 0 00-.33-5.45c7.36 1.627 14.766 3.29 22.22 4.99.193 1.993.38 3.987.56 5.98l-8.22-2.04zM60.86 380.43c-2.113-.707-4.233-1.423-6.36-2.15a3954.226 3954.226 0 00-3.14-34.9c3.7.833 7.414 1.667 11.14 2.5 1.41.31 2.7.85 3.87 1.64a11.7 11.7 0 013.03 2.85c.89 1.17 1.61 2.5 2.15 3.99.54 1.51.92 3.16 1.11 4.93.27 2.59.05 4.71-.65 6.35-.71 1.65-1.87 2.56-3.47 2.72a3301.743 3301.743 0 017.36 16.68 643.59 643.59 0 01-7.03-2.06 3536.359 3536.359 0 00-6.33-15.22c-.966-.273-1.936-.547-2.91-.82l1.23 13.49zm1.83-18.45c1.48.38 2.47.3 2.96-.25.52-.54.7-1.61.53-3.19a147.58 147.58 0 01-.15-1.54c-.17-1.59-.58-2.79-1.24-3.61-.62-.81-1.67-1.38-3.14-1.72-1.193-.287-2.386-.57-3.58-.85.34 3.387.674 6.787 1 10.2l3.62.96zM86.63 387.76c-.507-4.64-1.007-9.233-1.5-13.78a3701.37 3701.37 0 00-11.91-25.83c2.326.467 4.656.923 6.99 1.37 1.346 3.02 2.7 6.05 4.06 9.09 1.026 2.567 2.053 5.143 3.08 7.73.113.027.223.05.33.07.493-2.313.98-4.617 1.46-6.91.713-2.687 1.43-5.36 2.15-8.02 2.246.353 4.496.697 6.75 1.03a4297.46 4297.46 0 00-6.57 22.7c.506 4.587 1.02 9.217 1.54 13.89a362.091 362.091 0 01-6.38-1.34zM139.7 392.18c-3.79.25-6.79-1.3-8.99-4.66-2.19-3.39-3.62-8.13-4.27-14.16-.65-5.93-.23-10.46 1.26-13.58 1.52-3.09 4.24-4.49 8.14-4.27 3.91.2 6.93 1.86 9.06 4.98 2.17 3.1 3.51 7.38 4.05 12.88.54 5.56.07 9.98-1.43 13.27-1.44 3.35-4.04 5.22-7.82 5.54zm-.68-6.34c1.73-.08 2.85-.95 3.33-2.58.51-1.66.62-3.92.33-6.76-.207-2.02-.414-4.026-.62-6.02-.28-2.78-.85-4.94-1.7-6.49-.82-1.6-2.12-2.44-3.9-2.5-1.77-.07-2.92.69-3.45 2.28-.49 1.55-.59 3.76-.29 6.62.22 2.08.443 4.17.67 6.27.31 2.92.9 5.2 1.73 6.87.86 1.62 2.16 2.39 3.9 2.31zM157.76 367.75c-.154 0-.307.003-.46.01.66 7.22 1.333 14.48 2.02 21.78-1.714.207-3.43.41-5.15.61-1.094-11.247-2.16-22.387-3.2-33.42 2.506.087 5.016.17 7.53.25a5153.08 5153.08 0 008.36 20.98c.146-.007.293-.017.44-.03-.567-6.907-1.127-13.807-1.68-20.7 1.786.06 3.58.127 5.38.2.753 10.127 1.52 20.247 2.3 30.36-2.394.293-4.787.59-7.18.89a4786.585 4786.585 0 01-8.36-20.93zM215.24 365.75c-.107 6.58-.227 13.043-.36 19.39-2.04-.027-4.07-.04-6.09-.04 0-6.62-.01-13.343-.03-20.17-2.88-.3-5.75-.58-8.61-.84-.04-1.56-.084-3.123-.13-4.69 7.973 1 16.026 2.197 24.16 3.59a919.89 919.89 0 01-.15 4.15 470.24 470.24 0 00-8.79-1.39zM241.47 379.3c-2.573-.507-5.14-.99-7.7-1.45-.286 2.86-.58 5.69-.88 8.49-2.1-.22-4.193-.42-6.28-.6.5-7.127.954-14.454 1.36-21.98 2.267.5 4.544 1.016 6.83 1.55a654.433 654.433 0 01-.69 8.84c2.6.526 5.21 1.076 7.83 1.65.334-2.754.65-5.55.95-8.39 2.347.666 4.7 1.353 7.06 2.06-1 6.513-2.07 12.81-3.21 18.89a370.31 370.31 0 00-6.44-1.06c.394-2.64.784-5.307 1.17-8zM252.81 389.52a464.571 464.571 0 003.81-17.9c7.2 2.56 14.483 5.29 21.85 8.19-.314.927-.63 1.843-.95 2.75-4.82-1.813-9.61-3.56-14.37-5.24a523.434 523.434 0 01-.99 3.97 748.57 748.57 0 0113.56 4.53c-.34.86-.687 1.717-1.04 2.57a706.603 706.603 0 00-13.32-4.15c-.38 1.32-.76 2.63-1.14 3.93 4.46 1.207 8.946 2.47 13.46 3.79-.36.813-.724 1.623-1.09 2.43a593.545 593.545 0 00-19.78-4.87zM69.68 411.01c3.34 1.353 6.67 2.656 9.99 3.91 4.14 1.43 7.41 4.32 9.85 8.82 2.46 4.57 4.15 10.73 5.12 18.63 1.03 8.22.84 14.35-.61 18.14-1.48 3.72-4.41 4.44-8.79 2.06a465.13 465.13 0 01-10.66-6.44 5971.956 5971.956 0 01-4.9-45.12zM83.7 453.6c2.07 1.07 3.44.75 4.13-.89.69-1.67.78-4.5.3-8.42-.36-2.987-.714-5.937-1.06-8.85-.43-3.68-1.21-6.6-2.35-8.84-1.14-2.21-2.69-3.66-4.67-4.42-1-.394-1.997-.79-2.99-1.19a6151.81 6151.81 0 003.53 30.95c1.033.56 2.07 1.113 3.11 1.66zM103.14 470.68a6145.147 6145.147 0 01-6.42-50.73 193.796 193.796 0 0018.85 2.32c.326 2.654.656 5.33.99 8.03a160.874 160.874 0 01-12.43-.99c.446 3.647.906 7.34 1.38 11.08 4.04.447 8.043.714 12.01.8.373 2.887.753 5.804 1.14 8.75-3.96.007-7.964-.2-12.01-.62.553 4.234 1.12 8.544 1.7 12.93 4.18.367 8.31.447 12.39.24.426 3.167.86 6.37 1.3 9.61-6.147.314-12.447-.16-18.9-1.42zM136.34 468.14c-2.24 1.05-4.3 1.19-6.17.39-1.89-.87-3.54-2.46-4.94-4.72a883.884 883.884 0 012.52-7.83c1.27 1.74 2.56 2.91 3.86 3.49 1.32.53 2.58.56 3.79.08 1.39-.57 2.36-1.57 2.94-2.95.58-1.36.74-3.03.49-5-.21-1.6-.65-2.72-1.32-3.34-.65-.63-1.66-.91-3.03-.84-.993.02-1.986.02-2.98 0-2.57-.12-4.59-1.34-6.02-3.58-1.46-2.29-2.4-5.19-2.83-8.65-.56-4.43-.08-7.86 1.42-10.33 1.5-2.49 3.86-3.87 7.06-4.25 2.16-.31 4.11-.13 5.82.56 1.7.67 3.14 1.7 4.31 3.14a700.629 700.629 0 00-2.67 6.49c-.88-1.08-1.87-1.83-2.95-2.3-1.1-.52-2.29-.68-3.56-.45-2.7.43-3.83 2.38-3.39 5.93.2 1.57.63 2.68 1.32 3.36.7.65 1.77 1.04 3.16 1.11.994.04 1.987.073 2.98.1 2.3-.02 4.16.76 5.61 2.36 1.43 1.57 2.35 4.02 2.79 7.43.25 2.02.28 4.03.08 5.99s-.65 3.82-1.33 5.61c-.68 1.77-1.6 3.37-2.76 4.81a12.432 12.432 0 01-4.2 3.39zM156.23 438.09a493.568 493.568 0 00-1.74 5.99c.48 3.84.96 7.69 1.44 11.55a480.082 480.082 0 01-5.52 3.62 6723.661 6723.661 0 01-5-40.69c1.96-.5 3.913-1.01 5.86-1.53.607 5.234 1.223 10.507 1.85 15.82.107-.046.21-.09.31-.13.72-2.493 1.443-4.953 2.17-7.38 1.22-3.606 2.457-7.15 3.71-10.63 2.16-.66 4.32-1.323 6.48-1.99a559.303 559.303 0 00-6.35 17.58 445.795 445.795 0 0010.51 15.59c-2.047 1.44-4.09 2.877-6.13 4.31a600.107 600.107 0 01-7.59-12.11zM180.84 413.35a1600.96 1600.96 0 002.47 23.29c-1.787 1.207-3.58 2.423-5.38 3.65-.96-8.287-1.877-16.6-2.75-24.94-2.54.92-5.08 1.847-7.62 2.78l-.6-5.77c7.047-2.167 14.07-4.243 21.07-6.23.12 1.58.243 3.153.37 4.72a556.51 556.51 0 00-7.56 2.5zM201.96 426.33c-3.28 1.58-5.83 1.83-7.65.55-1.81-1.38-2.92-4.15-3.31-8.27-.36-4.18.19-7.73 1.68-10.54 1.53-2.74 4.08-4.47 7.63-5.19 3.56-.65 6.2-.04 7.92 1.72 1.72 1.71 2.61 4.29 2.71 7.73.13 3.38-.53 6.17-1.99 8.46-1.4 2.33-3.72 4.14-6.99 5.54zm-.37-3.68c1.52-.6 2.52-1.47 3.01-2.62.52-1.18.73-2.63.62-4.37-.073-1.26-.143-2.523-.21-3.79-.09-1.8-.47-3.13-1.13-4-.64-.93-1.76-1.22-3.37-.86-1.6.38-2.68 1.22-3.24 2.5-.52 1.25-.71 2.86-.57 4.8.107 1.387.217 2.77.33 4.15.16 1.88.58 3.22 1.25 4.03.69.75 1.8.79 3.31.16zM215.04 421.44c-.24-6.58-.377-13.347-.41-20.3 3.453-.293 6.907-.527 10.36-.7 1.31-.04 2.47.08 3.48.36 1 .26 1.83.65 2.47 1.16.67.51 1.15 1.13 1.43 1.84.28.72.38 1.52.3 2.41-.09.89-.34 1.7-.74 2.43-.4.74-.96 1.38-1.68 1.93-.69.56-1.52 1.03-2.5 1.4-.97.36-2.07.61-3.3.76-1.427.187-2.853.387-4.28.6.02 2.333.057 4.657.11 6.97-1.747.353-3.493.733-5.24 1.14zm5.15-11.5c.987-.127 1.977-.25 2.97-.37 1.29-.13 2.2-.4 2.7-.81.53-.41.82-1.03.86-1.86a32.2 32.2 0 01.05-.82c.05-.84-.18-1.43-.68-1.76-.48-.34-1.39-.48-2.73-.39-1.02.08-2.04.163-3.06.25a567.345 567.345 0 00-.11 5.76z" fill="#000"/>
</svg>
